<svg width="40" height="40" viewBox="0 0 40 40" fill="none" xmlns="http://www.w3.org/2000/svg">
<circle cx="20" cy="20" r="17.5" fill="white" stroke="#F9A779" stroke-width="5"/>
<path d="M27.3086 18.8281V26.4297C27.026 26.8034 26.584 27.2135 25.9824 27.6602C25.39 28.0977 24.6016 28.4759 23.6172 28.7949C22.6328 29.1139 21.4069 29.2734 19.9395 29.2734C18.6908 29.2734 17.5469 29.0638 16.5078 28.6445C15.4688 28.2161 14.571 27.5918 13.8145 26.7715C13.0671 25.9512 12.4883 24.9531 12.0781 23.7773C11.668 22.5924 11.4629 21.2435 11.4629 19.7305V18.3496C11.4629 16.8457 11.6497 15.5059 12.0234 14.3301C12.4062 13.1452 12.9531 12.1426 13.6641 11.3223C14.375 10.502 15.2318 9.88216 16.2344 9.46289C17.2461 9.03451 18.39 8.82031 19.666 8.82031C21.2975 8.82031 22.6465 9.09375 23.7129 9.64062C24.7884 10.1784 25.6178 10.9258 26.2012 11.8828C26.7845 12.8398 27.1536 13.9336 27.3086 15.1641H23.9453C23.8359 14.4714 23.6217 13.8516 23.3027 13.3047C22.9928 12.7578 22.5462 12.3294 21.9629 12.0195C21.3887 11.7005 20.6413 11.541 19.7207 11.541C18.9277 11.541 18.2305 11.6914 17.6289 11.9922C17.0273 12.293 16.526 12.735 16.125 13.3184C15.7331 13.9017 15.4368 14.6126 15.2363 15.4512C15.0358 16.2897 14.9355 17.2467 14.9355 18.3223V19.7305C14.9355 20.8242 15.0495 21.7949 15.2773 22.6426C15.5143 23.4902 15.8516 24.2057 16.2891 24.7891C16.7357 25.3724 17.278 25.8145 17.916 26.1152C18.554 26.4069 19.2741 26.5527 20.0762 26.5527C20.86 26.5527 21.5026 26.4889 22.0039 26.3613C22.5052 26.2246 22.9017 26.0651 23.1934 25.8828C23.4941 25.6914 23.7266 25.5091 23.8906 25.3359V21.3848H19.748V18.8281H27.3086Z" fill="#48B774"/>
</svg>
