<svg width="131" height="40" viewBox="0 0 131 40" fill="none" xmlns="http://www.w3.org/2000/svg">
<path d="M27.3086 18.8281V26.4297C27.026 26.8034 26.584 27.2135 25.9824 27.6602C25.39 28.0977 24.6016 28.4759 23.6172 28.7949C22.6328 29.1139 21.4069 29.2734 19.9395 29.2734C18.6908 29.2734 17.5469 29.0638 16.5078 28.6445C15.4688 28.2161 14.571 27.5918 13.8145 26.7715C13.0671 25.9512 12.4883 24.9531 12.0781 23.7773C11.668 22.5924 11.4629 21.2435 11.4629 19.7305V18.3496C11.4629 16.8457 11.6497 15.5059 12.0234 14.3301C12.4062 13.1452 12.9531 12.1426 13.6641 11.3223C14.375 10.502 15.2318 9.88216 16.2344 9.46289C17.2461 9.03451 18.39 8.82031 19.666 8.82031C21.2975 8.82031 22.6465 9.09375 23.7129 9.64062C24.7884 10.1784 25.6178 10.9258 26.2012 11.8828C26.7845 12.8398 27.1536 13.9336 27.3086 15.1641H23.9453C23.8359 14.4714 23.6217 13.8516 23.3027 13.3047C22.9928 12.7578 22.5462 12.3294 21.9629 12.0195C21.3887 11.7005 20.6413 11.541 19.7207 11.541C18.9277 11.541 18.2305 11.6914 17.6289 11.9922C17.0273 12.293 16.526 12.735 16.125 13.3184C15.7331 13.9017 15.4368 14.6126 15.2363 15.4512C15.0358 16.2897 14.9355 17.2467 14.9355 18.3223V19.7305C14.9355 20.8242 15.0495 21.7949 15.2773 22.6426C15.5143 23.4902 15.8516 24.2057 16.2891 24.7891C16.7357 25.3724 17.278 25.8145 17.916 26.1152C18.554 26.4069 19.2741 26.5527 20.0762 26.5527C20.86 26.5527 21.5026 26.4889 22.0039 26.3613C22.5052 26.2246 22.9017 26.0651 23.1934 25.8828C23.4941 25.6914 23.7266 25.5091 23.8906 25.3359V21.3848H19.748V18.8281H27.3086Z" fill="#48B774"/>
<circle cx="20" cy="20" r="17.5" stroke="#F9A779" stroke-width="5"/>
<path d="M62.45 16.625C62 15.7583 61.375 15.1083 60.575 14.675C59.775 14.225 58.85 14 57.8 14C56.65 14 55.625 14.2583 54.725 14.775C53.825 15.2917 53.1167 16.025 52.6 16.975C52.1 17.925 51.85 19.025 51.85 20.275C51.85 21.525 52.1 22.6333 52.6 23.6C53.1167 24.55 53.825 25.2833 54.725 25.8C55.625 26.3167 56.65 26.575 57.8 26.575C59.35 26.575 60.6083 26.1417 61.575 25.275C62.5417 24.4083 63.1333 23.2333 63.35 21.75H56.825V19.475H66.4V21.7C66.2167 23.05 65.7333 24.2917 64.95 25.425C64.1833 26.5583 63.175 27.4667 61.925 28.15C60.6917 28.8167 59.3167 29.15 57.8 29.15C56.1667 29.15 54.675 28.775 53.325 28.025C51.975 27.2583 50.9 26.2 50.1 24.85C49.3167 23.5 48.925 21.975 48.925 20.275C48.925 18.575 49.3167 17.05 50.1 15.7C50.9 14.35 51.975 13.3 53.325 12.55C54.6917 11.7833 56.1833 11.4 57.8 11.4C59.65 11.4 61.2917 11.8583 62.725 12.775C64.175 13.675 65.225 14.9583 65.875 16.625H62.45ZM72.0609 10.5V29H69.2109V10.5H72.0609ZM81.7777 29.225C80.4777 29.225 79.3027 28.9333 78.2527 28.35C77.2027 27.75 76.3777 26.9167 75.7777 25.85C75.1777 24.7667 74.8777 23.5167 74.8777 22.1C74.8777 20.7 75.1861 19.4583 75.8027 18.375C76.4194 17.2917 77.2611 16.4583 78.3277 15.875C79.3944 15.2917 80.5861 15 81.9027 15C83.2194 15 84.4111 15.2917 85.4777 15.875C86.5444 16.4583 87.3861 17.2917 88.0027 18.375C88.6194 19.4583 88.9277 20.7 88.9277 22.1C88.9277 23.5 88.6111 24.7417 87.9777 25.825C87.3444 26.9083 86.4777 27.75 85.3777 28.35C84.2944 28.9333 83.0944 29.225 81.7777 29.225ZM81.7777 26.75C82.5111 26.75 83.1944 26.575 83.8277 26.225C84.4777 25.875 85.0027 25.35 85.4027 24.65C85.8027 23.95 86.0027 23.1 86.0027 22.1C86.0027 21.1 85.8111 20.2583 85.4277 19.575C85.0444 18.875 84.5361 18.35 83.9027 18C83.2694 17.65 82.5861 17.475 81.8527 17.475C81.1194 17.475 80.4361 17.65 79.8027 18C79.1861 18.35 78.6944 18.875 78.3277 19.575C77.9611 20.2583 77.7777 21.1 77.7777 22.1C77.7777 23.5833 78.1527 24.7333 78.9027 25.55C79.6694 26.35 80.6277 26.75 81.7777 26.75ZM94.5951 17.275C95.0785 16.6083 95.7368 16.0667 96.5701 15.65C97.4201 15.2167 98.3618 15 99.3951 15C100.612 15 101.712 15.2917 102.695 15.875C103.678 16.4583 104.453 17.2917 105.02 18.375C105.587 19.4417 105.87 20.6667 105.87 22.05C105.87 23.4333 105.587 24.675 105.02 25.775C104.453 26.8583 103.67 27.7083 102.67 28.325C101.687 28.925 100.595 29.225 99.3951 29.225C98.3285 29.225 97.3785 29.0167 96.5451 28.6C95.7285 28.1833 95.0785 27.65 94.5951 27V29H91.7451V10.5H94.5951V17.275ZM102.97 22.05C102.97 21.1 102.77 20.2833 102.37 19.6C101.987 18.9 101.47 18.375 100.82 18.025C100.187 17.6583 99.5035 17.475 98.7701 17.475C98.0535 17.475 97.3701 17.6583 96.7201 18.025C96.0868 18.3917 95.5701 18.925 95.1701 19.625C94.7868 20.325 94.5951 21.15 94.5951 22.1C94.5951 23.05 94.7868 23.8833 95.1701 24.6C95.5701 25.3 96.0868 25.8333 96.7201 26.2C97.3701 26.5667 98.0535 26.75 98.7701 26.75C99.5035 26.75 100.187 26.5667 100.82 26.2C101.47 25.8167 101.987 25.2667 102.37 24.55C102.77 23.8333 102.97 23 102.97 22.05ZM107.738 22.05C107.738 20.6667 108.022 19.4417 108.588 18.375C109.172 17.3083 109.955 16.4833 110.938 15.9C111.938 15.3 113.038 15 114.238 15C115.322 15 116.263 15.2167 117.063 15.65C117.88 16.0667 118.53 16.5917 119.013 17.225V15.225H121.888V29H119.013V26.95C118.53 27.6 117.872 28.1417 117.038 28.575C116.205 29.0083 115.255 29.225 114.188 29.225C113.005 29.225 111.922 28.925 110.938 28.325C109.955 27.7083 109.172 26.8583 108.588 25.775C108.022 24.675 107.738 23.4333 107.738 22.05ZM119.013 22.1C119.013 21.15 118.813 20.325 118.413 19.625C118.03 18.925 117.522 18.3917 116.888 18.025C116.255 17.6583 115.572 17.475 114.838 17.475C114.105 17.475 113.422 17.6583 112.788 18.025C112.155 18.375 111.638 18.9 111.238 19.6C110.855 20.2833 110.663 21.1 110.663 22.05C110.663 23 110.855 23.8333 111.238 24.55C111.638 25.2667 112.155 25.8167 112.788 26.2C113.438 26.5667 114.122 26.75 114.838 26.75C115.572 26.75 116.255 26.5667 116.888 26.2C117.522 25.8333 118.03 25.3 118.413 24.6C118.813 23.8833 119.013 23.05 119.013 22.1ZM128.482 10.5V29H125.632V10.5H128.482Z" fill="#2D2D2D"/>
</svg>
